<?xml version="1.0" encoding="utf-8"?>
<!-- Generator: Adobe Illustrator 27.5.0, SVG Export Plug-In . SVG Version: 6.00 Build 0)  -->
<svg version="1.1" id="Capa_1" xmlns="http://www.w3.org/2000/svg" xmlns:xlink="http://www.w3.org/1999/xlink" x="0px" y="0px"
	 viewBox="0 0 1959 2298" style="enable-background:new 0 0 1959 2298;" xml:space="preserve">
<g>
	<rect style="fill:#A7D9F0;" width="1958.551" height="2297.609"/>
	<g>
		<rect x="0.004" style="fill:#C5E6F5;" width="32.195" height="27.844"/>
		<rect x="41.781" style="fill:#C5E6F5;" width="172.309" height="27.844"/>
		<rect x="223.664" style="fill:#C5E6F5;" width="172.309" height="27.844"/>
		<rect x="405.547" style="fill:#C5E6F5;" width="172.309" height="27.844"/>
		<rect x="587.426" style="fill:#C5E6F5;" width="172.309" height="27.844"/>
		<rect x="769.309" style="fill:#C5E6F5;" width="172.309" height="27.844"/>
		<rect x="951.199" style="fill:#C5E6F5;" width="172.309" height="27.844"/>
		<rect x="1133.07" style="fill:#C5E6F5;" width="172.309" height="27.844"/>
		<rect x="1314.961" style="fill:#C5E6F5;" width="172.309" height="27.844"/>
		<rect x="1496.844" style="fill:#C5E6F5;" width="172.309" height="27.844"/>
		<rect x="1678.727" style="fill:#C5E6F5;" width="172.309" height="27.844"/>
		<rect x="1860.605" style="fill:#C5E6F5;" width="97.945" height="27.844"/>
		<rect x="0.004" y="43.168" style="fill:#C5E6F5;" width="132.957" height="61.262"/>
		<rect x="142.535" y="43.168" style="fill:#C5E6F5;" width="172.309" height="61.262"/>
		<rect x="324.418" y="43.168" style="fill:#C5E6F5;" width="172.309" height="61.262"/>
		<rect x="506.297" y="43.168" style="fill:#C5E6F5;" width="172.309" height="61.262"/>
		<rect x="688.188" y="43.168" style="fill:#C5E6F5;" width="172.309" height="61.262"/>
		<rect x="870.063" y="43.168" style="fill:#C5E6F5;" width="172.309" height="61.262"/>
		<rect x="1051.953" y="43.168" style="fill:#C5E6F5;" width="172.309" height="61.262"/>
		<rect x="1233.832" y="43.168" style="fill:#C5E6F5;" width="172.309" height="61.262"/>
		<rect x="1415.719" y="43.168" style="fill:#C5E6F5;" width="172.309" height="61.262"/>
		<rect x="1597.598" y="43.168" style="fill:#C5E6F5;" width="172.309" height="61.262"/>
		<rect x="1779.488" y="43.168" style="fill:#C5E6F5;" width="172.309" height="61.262"/>
		<rect x="0.004" y="123.566" style="fill:#C5E6F5;" width="32.195" height="61.262"/>
		<rect x="41.781" y="123.566" style="fill:#C5E6F5;" width="172.309" height="61.262"/>
		<rect x="223.664" y="123.566" style="fill:#C5E6F5;" width="172.309" height="61.262"/>
		<rect x="405.547" y="123.566" style="fill:#C5E6F5;" width="172.309" height="61.262"/>
		<rect x="587.426" y="123.566" style="fill:#C5E6F5;" width="172.309" height="61.262"/>
		<rect x="769.309" y="123.566" style="fill:#C5E6F5;" width="172.309" height="61.262"/>
		<rect x="951.199" y="123.566" style="fill:#C5E6F5;" width="172.309" height="61.262"/>
		<rect x="1133.07" y="123.566" style="fill:#C5E6F5;" width="172.309" height="61.262"/>
		<rect x="1314.961" y="123.566" style="fill:#C5E6F5;" width="172.309" height="61.262"/>
		<rect x="1496.844" y="123.566" style="fill:#C5E6F5;" width="172.309" height="61.262"/>
		<rect x="1678.727" y="123.566" style="fill:#C5E6F5;" width="172.309" height="61.262"/>
		<rect x="1860.605" y="123.566" style="fill:#C5E6F5;" width="97.945" height="61.262"/>
		<rect x="0.004" y="200.152" style="fill:#C5E6F5;" width="132.957" height="61.262"/>
		<rect x="142.535" y="200.152" style="fill:#C5E6F5;" width="172.309" height="61.262"/>
		<rect x="324.418" y="200.152" style="fill:#C5E6F5;" width="172.309" height="61.262"/>
		<rect x="506.297" y="200.152" style="fill:#C5E6F5;" width="172.309" height="61.262"/>
		<rect x="688.188" y="200.152" style="fill:#C5E6F5;" width="172.309" height="61.262"/>
		<rect x="870.063" y="200.152" style="fill:#C5E6F5;" width="172.309" height="61.262"/>
		<rect x="1051.953" y="200.152" style="fill:#C5E6F5;" width="172.309" height="61.262"/>
		<rect x="1233.832" y="200.152" style="fill:#C5E6F5;" width="172.309" height="61.262"/>
		<rect x="1415.719" y="200.152" style="fill:#C5E6F5;" width="172.309" height="61.262"/>
		<rect x="1597.598" y="200.152" style="fill:#C5E6F5;" width="172.309" height="61.262"/>
		<rect x="1779.488" y="200.152" style="fill:#C5E6F5;" width="172.309" height="61.262"/>
		<rect x="0.004" y="280.551" style="fill:#C5E6F5;" width="32.195" height="61.262"/>
		<rect x="41.781" y="280.551" style="fill:#C5E6F5;" width="172.309" height="61.262"/>
		<rect x="223.664" y="280.551" style="fill:#C5E6F5;" width="172.309" height="61.262"/>
		<rect x="405.547" y="280.551" style="fill:#C5E6F5;" width="172.309" height="61.262"/>
		<rect x="587.426" y="280.551" style="fill:#C5E6F5;" width="172.309" height="61.262"/>
		<rect x="769.309" y="280.551" style="fill:#C5E6F5;" width="172.309" height="61.262"/>
		<rect x="951.199" y="280.551" style="fill:#C5E6F5;" width="172.309" height="61.262"/>
		<rect x="1133.07" y="280.551" style="fill:#C5E6F5;" width="172.309" height="61.262"/>
		<rect x="1314.961" y="280.551" style="fill:#C5E6F5;" width="172.309" height="61.262"/>
		<rect x="1496.844" y="280.551" style="fill:#C5E6F5;" width="172.309" height="61.262"/>
		<rect x="1678.727" y="280.551" style="fill:#C5E6F5;" width="172.309" height="61.262"/>
		<rect x="1860.605" y="280.551" style="fill:#C5E6F5;" width="97.945" height="61.262"/>
		<rect x="0.004" y="357.137" style="fill:#C5E6F5;" width="132.957" height="61.262"/>
		<rect x="142.535" y="357.137" style="fill:#C5E6F5;" width="172.309" height="61.262"/>
		<rect x="324.418" y="357.137" style="fill:#C5E6F5;" width="172.309" height="61.262"/>
		<rect x="506.297" y="357.137" style="fill:#C5E6F5;" width="172.309" height="61.262"/>
		<rect x="688.188" y="357.137" style="fill:#C5E6F5;" width="172.309" height="61.262"/>
		<rect x="870.063" y="357.137" style="fill:#C5E6F5;" width="172.309" height="61.262"/>
		<rect x="1051.953" y="357.137" style="fill:#C5E6F5;" width="172.309" height="61.262"/>
		<rect x="1233.832" y="357.137" style="fill:#C5E6F5;" width="172.309" height="61.262"/>
		<rect x="1415.719" y="357.137" style="fill:#C5E6F5;" width="172.309" height="61.262"/>
		<rect x="1597.598" y="357.137" style="fill:#C5E6F5;" width="172.309" height="61.262"/>
		<rect x="1779.488" y="357.137" style="fill:#C5E6F5;" width="172.309" height="61.262"/>
		<rect x="0.004" y="437.535" style="fill:#C5E6F5;" width="32.195" height="61.262"/>
		<rect x="41.781" y="437.535" style="fill:#C5E6F5;" width="172.309" height="61.262"/>
		<rect x="223.664" y="437.535" style="fill:#C5E6F5;" width="172.309" height="61.262"/>
		<rect x="405.547" y="437.535" style="fill:#C5E6F5;" width="172.309" height="61.262"/>
		<rect x="587.426" y="437.535" style="fill:#C5E6F5;" width="172.309" height="61.262"/>
		<rect x="769.309" y="437.535" style="fill:#C5E6F5;" width="172.309" height="61.262"/>
		<rect x="951.199" y="437.535" style="fill:#C5E6F5;" width="172.309" height="61.262"/>
		<rect x="1133.07" y="437.535" style="fill:#C5E6F5;" width="172.309" height="61.262"/>
		<rect x="1314.961" y="437.535" style="fill:#C5E6F5;" width="172.309" height="61.262"/>
		<rect x="1496.844" y="437.535" style="fill:#C5E6F5;" width="172.309" height="61.262"/>
		<rect x="1678.727" y="437.535" style="fill:#C5E6F5;" width="172.309" height="61.262"/>
		<rect x="1860.605" y="437.535" style="fill:#C5E6F5;" width="97.945" height="61.262"/>
		<rect x="0.004" y="514.121" style="fill:#C5E6F5;" width="132.957" height="61.262"/>
		<rect x="142.535" y="514.121" style="fill:#C5E6F5;" width="172.309" height="61.262"/>
		<rect x="324.418" y="514.121" style="fill:#C5E6F5;" width="172.309" height="61.262"/>
		<rect x="506.297" y="514.121" style="fill:#C5E6F5;" width="172.309" height="61.262"/>
		<rect x="688.188" y="514.121" style="fill:#C5E6F5;" width="172.309" height="61.262"/>
		<rect x="870.063" y="514.121" style="fill:#C5E6F5;" width="172.309" height="61.262"/>
		<rect x="1051.953" y="514.121" style="fill:#C5E6F5;" width="172.309" height="61.262"/>
		<rect x="1233.832" y="514.121" style="fill:#C5E6F5;" width="172.309" height="61.262"/>
		<rect x="1415.719" y="514.121" style="fill:#C5E6F5;" width="172.309" height="61.262"/>
		<rect x="1597.598" y="514.121" style="fill:#C5E6F5;" width="172.309" height="61.262"/>
		<rect x="1779.488" y="514.121" style="fill:#C5E6F5;" width="172.309" height="61.262"/>
		<rect x="0.004" y="594.519" style="fill:#C5E6F5;" width="32.195" height="61.262"/>
		<rect x="41.781" y="594.519" style="fill:#C5E6F5;" width="172.309" height="61.262"/>
		<rect x="223.664" y="594.519" style="fill:#C5E6F5;" width="172.309" height="61.262"/>
		<rect x="405.547" y="594.519" style="fill:#C5E6F5;" width="172.309" height="61.262"/>
		<rect x="587.426" y="594.519" style="fill:#C5E6F5;" width="172.309" height="61.262"/>
		<rect x="769.309" y="594.519" style="fill:#C5E6F5;" width="172.309" height="61.262"/>
		<rect x="951.199" y="594.519" style="fill:#C5E6F5;" width="172.309" height="61.262"/>
		<rect x="1133.07" y="594.519" style="fill:#C5E6F5;" width="172.309" height="61.262"/>
		<rect x="1314.961" y="594.519" style="fill:#C5E6F5;" width="172.309" height="61.262"/>
		<rect x="1496.844" y="594.519" style="fill:#C5E6F5;" width="172.309" height="61.262"/>
		<rect x="1678.727" y="594.519" style="fill:#C5E6F5;" width="172.309" height="61.262"/>
		<rect x="1860.605" y="594.519" style="fill:#C5E6F5;" width="97.945" height="61.262"/>
		<rect x="0.004" y="671.106" style="fill:#C5E6F5;" width="132.957" height="61.262"/>
		<rect x="142.535" y="671.106" style="fill:#C5E6F5;" width="172.309" height="61.262"/>
		<rect x="324.418" y="671.106" style="fill:#C5E6F5;" width="172.309" height="61.262"/>
		<rect x="506.297" y="671.106" style="fill:#C5E6F5;" width="172.309" height="61.262"/>
		<rect x="688.188" y="671.106" style="fill:#C5E6F5;" width="172.309" height="61.262"/>
		<rect x="870.063" y="671.106" style="fill:#C5E6F5;" width="172.309" height="61.262"/>
		<rect x="1051.953" y="671.106" style="fill:#C5E6F5;" width="172.309" height="61.262"/>
		<rect x="1233.832" y="671.106" style="fill:#C5E6F5;" width="172.309" height="61.262"/>
		<rect x="1415.719" y="671.106" style="fill:#C5E6F5;" width="172.309" height="61.262"/>
		<rect x="1597.598" y="671.106" style="fill:#C5E6F5;" width="172.309" height="61.262"/>
		<rect x="1779.488" y="671.106" style="fill:#C5E6F5;" width="172.309" height="61.262"/>
		<rect x="0.004" y="751.508" style="fill:#C5E6F5;" width="32.195" height="61.262"/>
		<rect x="41.781" y="751.508" style="fill:#C5E6F5;" width="172.309" height="61.262"/>
		<rect x="223.664" y="751.508" style="fill:#C5E6F5;" width="172.309" height="61.262"/>
		<rect x="405.547" y="751.508" style="fill:#C5E6F5;" width="172.309" height="61.262"/>
		<rect x="587.426" y="751.508" style="fill:#C5E6F5;" width="172.309" height="61.262"/>
		<rect x="769.309" y="751.508" style="fill:#C5E6F5;" width="172.309" height="61.262"/>
		<rect x="951.199" y="751.508" style="fill:#C5E6F5;" width="172.309" height="61.262"/>
		<rect x="1133.07" y="751.508" style="fill:#C5E6F5;" width="172.309" height="61.262"/>
		<rect x="1314.961" y="751.508" style="fill:#C5E6F5;" width="172.309" height="61.262"/>
		<rect x="1496.844" y="751.508" style="fill:#C5E6F5;" width="172.309" height="61.262"/>
		<rect x="1678.727" y="751.508" style="fill:#C5E6F5;" width="172.309" height="61.262"/>
		<rect x="1860.605" y="751.508" style="fill:#C5E6F5;" width="97.945" height="61.262"/>
		<rect x="0.004" y="828.09" style="fill:#C5E6F5;" width="132.957" height="61.262"/>
		<rect x="142.535" y="828.09" style="fill:#C5E6F5;" width="172.309" height="61.262"/>
		<rect x="324.418" y="828.09" style="fill:#C5E6F5;" width="172.309" height="61.262"/>
		<rect x="506.297" y="828.09" style="fill:#C5E6F5;" width="172.309" height="61.262"/>
		<rect x="688.188" y="828.09" style="fill:#C5E6F5;" width="172.309" height="61.262"/>
		<rect x="870.063" y="828.09" style="fill:#C5E6F5;" width="172.309" height="61.262"/>
		<rect x="1051.953" y="828.09" style="fill:#C5E6F5;" width="172.309" height="61.262"/>
		<rect x="1233.832" y="828.09" style="fill:#C5E6F5;" width="172.309" height="61.262"/>
		<rect x="1415.719" y="828.09" style="fill:#C5E6F5;" width="172.309" height="61.262"/>
		<rect x="1597.598" y="828.09" style="fill:#C5E6F5;" width="172.309" height="61.262"/>
		<rect x="1779.488" y="828.09" style="fill:#C5E6F5;" width="172.309" height="61.262"/>
		<rect x="0.004" y="908.492" style="fill:#C5E6F5;" width="32.195" height="61.262"/>
		<rect x="41.781" y="908.492" style="fill:#C5E6F5;" width="172.309" height="61.262"/>
		<rect x="223.664" y="908.492" style="fill:#C5E6F5;" width="172.309" height="61.262"/>
		<rect x="405.547" y="908.492" style="fill:#C5E6F5;" width="172.309" height="61.262"/>
		<rect x="587.426" y="908.492" style="fill:#C5E6F5;" width="172.309" height="61.262"/>
		<rect x="769.309" y="908.492" style="fill:#C5E6F5;" width="172.309" height="61.262"/>
		<rect x="951.199" y="908.492" style="fill:#C5E6F5;" width="172.309" height="61.262"/>
		<rect x="1133.07" y="908.492" style="fill:#C5E6F5;" width="172.309" height="61.262"/>
		<rect x="1314.961" y="908.492" style="fill:#C5E6F5;" width="172.309" height="61.262"/>
		<rect x="1496.844" y="908.492" style="fill:#C5E6F5;" width="172.309" height="61.262"/>
		<rect x="1678.727" y="908.492" style="fill:#C5E6F5;" width="172.309" height="61.262"/>
		<rect x="1860.605" y="908.492" style="fill:#C5E6F5;" width="97.945" height="61.262"/>
		<rect x="0.004" y="985.078" style="fill:#C5E6F5;" width="132.957" height="61.262"/>
		<rect x="142.535" y="985.078" style="fill:#C5E6F5;" width="172.309" height="61.262"/>
		<rect x="324.418" y="985.078" style="fill:#C5E6F5;" width="172.309" height="61.262"/>
		<rect x="506.297" y="985.078" style="fill:#C5E6F5;" width="172.309" height="61.262"/>
		<rect x="688.188" y="985.078" style="fill:#C5E6F5;" width="172.309" height="61.262"/>
		<rect x="870.063" y="985.078" style="fill:#C5E6F5;" width="172.309" height="61.262"/>
		<rect x="1051.953" y="985.078" style="fill:#C5E6F5;" width="172.309" height="61.262"/>
		<rect x="1233.832" y="985.078" style="fill:#C5E6F5;" width="172.309" height="61.262"/>
		<rect x="1415.719" y="985.078" style="fill:#C5E6F5;" width="172.309" height="61.262"/>
		<rect x="1597.598" y="985.078" style="fill:#C5E6F5;" width="172.309" height="61.262"/>
		<rect x="1779.488" y="985.078" style="fill:#C5E6F5;" width="172.309" height="61.262"/>
		<rect x="0.004" y="1065.477" style="fill:#C5E6F5;" width="32.195" height="61.262"/>
		<rect x="41.781" y="1065.477" style="fill:#C5E6F5;" width="172.309" height="61.262"/>
		<rect x="223.664" y="1065.477" style="fill:#C5E6F5;" width="172.309" height="61.262"/>
		<rect x="405.547" y="1065.477" style="fill:#C5E6F5;" width="172.309" height="61.262"/>
		<rect x="587.426" y="1065.477" style="fill:#C5E6F5;" width="172.309" height="61.262"/>
		<rect x="769.309" y="1065.477" style="fill:#C5E6F5;" width="172.309" height="61.262"/>
		<rect x="951.199" y="1065.477" style="fill:#C5E6F5;" width="172.309" height="61.262"/>
		<rect x="1133.07" y="1065.477" style="fill:#C5E6F5;" width="172.309" height="61.262"/>
		<rect x="1314.961" y="1065.477" style="fill:#C5E6F5;" width="172.309" height="61.262"/>
		<rect x="1496.844" y="1065.477" style="fill:#C5E6F5;" width="172.309" height="61.262"/>
		<rect x="1678.727" y="1065.477" style="fill:#C5E6F5;" width="172.309" height="61.262"/>
		<rect x="1860.605" y="1065.477" style="fill:#C5E6F5;" width="97.945" height="61.262"/>
		<rect x="0.004" y="1142.063" style="fill:#C5E6F5;" width="132.957" height="61.262"/>
		<rect x="142.535" y="1142.063" style="fill:#C5E6F5;" width="172.309" height="61.262"/>
		<rect x="324.418" y="1142.063" style="fill:#C5E6F5;" width="172.309" height="61.262"/>
		<rect x="506.297" y="1142.063" style="fill:#C5E6F5;" width="172.309" height="61.262"/>
		<rect x="688.188" y="1142.063" style="fill:#C5E6F5;" width="172.309" height="61.262"/>
		<rect x="870.063" y="1142.063" style="fill:#C5E6F5;" width="172.309" height="61.262"/>
		<rect x="1051.953" y="1142.063" style="fill:#C5E6F5;" width="172.309" height="61.262"/>
		<rect x="1233.832" y="1142.063" style="fill:#C5E6F5;" width="172.309" height="61.262"/>
		<rect x="1415.719" y="1142.063" style="fill:#C5E6F5;" width="172.309" height="61.262"/>
		<rect x="1597.598" y="1142.063" style="fill:#C5E6F5;" width="172.309" height="61.262"/>
		<rect x="1779.488" y="1142.063" style="fill:#C5E6F5;" width="172.309" height="61.262"/>
		<rect x="0.004" y="1222.461" style="fill:#C5E6F5;" width="32.195" height="61.262"/>
		<rect x="41.781" y="1222.461" style="fill:#C5E6F5;" width="172.309" height="61.262"/>
		<rect x="223.664" y="1222.461" style="fill:#C5E6F5;" width="172.309" height="61.262"/>
		<rect x="405.547" y="1222.461" style="fill:#C5E6F5;" width="172.309" height="61.262"/>
		<rect x="587.426" y="1222.461" style="fill:#C5E6F5;" width="172.309" height="61.262"/>
		<rect x="769.309" y="1222.461" style="fill:#C5E6F5;" width="172.309" height="61.262"/>
		<rect x="951.199" y="1222.461" style="fill:#C5E6F5;" width="172.309" height="61.262"/>
		<rect x="1133.07" y="1222.461" style="fill:#C5E6F5;" width="172.309" height="61.262"/>
		<rect x="1314.961" y="1222.461" style="fill:#C5E6F5;" width="172.309" height="61.262"/>
		<rect x="1496.844" y="1222.461" style="fill:#C5E6F5;" width="172.309" height="61.262"/>
		<rect x="1678.727" y="1222.461" style="fill:#C5E6F5;" width="172.309" height="61.262"/>
		<rect x="1860.605" y="1222.461" style="fill:#C5E6F5;" width="97.945" height="61.262"/>
		<rect x="0.004" y="1299.047" style="fill:#C5E6F5;" width="132.957" height="61.262"/>
		<rect x="142.535" y="1299.047" style="fill:#C5E6F5;" width="172.309" height="61.262"/>
		<rect x="324.418" y="1299.047" style="fill:#C5E6F5;" width="172.309" height="61.262"/>
		<rect x="506.297" y="1299.047" style="fill:#C5E6F5;" width="172.309" height="61.262"/>
		<rect x="688.188" y="1299.047" style="fill:#C5E6F5;" width="172.309" height="61.262"/>
		<rect x="870.063" y="1299.047" style="fill:#C5E6F5;" width="172.309" height="61.262"/>
		<rect x="1051.953" y="1299.047" style="fill:#C5E6F5;" width="172.309" height="61.262"/>
		<rect x="1233.832" y="1299.047" style="fill:#C5E6F5;" width="172.309" height="61.262"/>
		<rect x="1415.719" y="1299.047" style="fill:#C5E6F5;" width="172.309" height="61.262"/>
		<rect x="1597.598" y="1299.047" style="fill:#C5E6F5;" width="172.309" height="61.262"/>
		<rect x="1779.488" y="1299.047" style="fill:#C5E6F5;" width="172.309" height="61.262"/>
		<rect x="0.004" y="1379.445" style="fill:#C5E6F5;" width="32.195" height="61.262"/>
		<rect x="41.781" y="1379.445" style="fill:#C5E6F5;" width="172.309" height="61.262"/>
		<rect x="223.664" y="1379.445" style="fill:#C5E6F5;" width="172.309" height="61.262"/>
		<rect x="405.547" y="1379.445" style="fill:#C5E6F5;" width="172.309" height="61.262"/>
		<rect x="587.426" y="1379.445" style="fill:#C5E6F5;" width="172.309" height="61.262"/>
		<rect x="769.309" y="1379.445" style="fill:#C5E6F5;" width="172.309" height="61.262"/>
		<rect x="951.199" y="1379.445" style="fill:#C5E6F5;" width="172.309" height="61.262"/>
		<rect x="1133.07" y="1379.445" style="fill:#C5E6F5;" width="172.309" height="61.262"/>
		<rect x="1314.961" y="1379.445" style="fill:#C5E6F5;" width="172.309" height="61.262"/>
		<rect x="1496.844" y="1379.445" style="fill:#C5E6F5;" width="172.309" height="61.262"/>
		<rect x="1678.727" y="1379.445" style="fill:#C5E6F5;" width="172.309" height="61.262"/>
		<rect x="1860.605" y="1379.445" style="fill:#C5E6F5;" width="97.945" height="61.262"/>
		<rect x="0.004" y="1456.031" style="fill:#C5E6F5;" width="132.957" height="61.262"/>
		<rect x="142.535" y="1456.031" style="fill:#C5E6F5;" width="172.309" height="61.262"/>
		<rect x="324.418" y="1456.031" style="fill:#C5E6F5;" width="172.309" height="61.262"/>
		<rect x="506.297" y="1456.031" style="fill:#C5E6F5;" width="172.309" height="61.262"/>
		<rect x="688.188" y="1456.031" style="fill:#C5E6F5;" width="172.309" height="61.262"/>
		<rect x="870.063" y="1456.031" style="fill:#C5E6F5;" width="172.309" height="61.262"/>
		<rect x="1051.953" y="1456.031" style="fill:#C5E6F5;" width="172.309" height="61.262"/>
		<rect x="1233.832" y="1456.031" style="fill:#C5E6F5;" width="172.309" height="61.262"/>
		<rect x="1415.719" y="1456.031" style="fill:#C5E6F5;" width="172.309" height="61.262"/>
		<rect x="1597.598" y="1456.031" style="fill:#C5E6F5;" width="172.309" height="61.262"/>
		<rect x="1779.488" y="1456.031" style="fill:#C5E6F5;" width="172.309" height="61.262"/>
		<rect x="0.004" y="1536.43" style="fill:#C5E6F5;" width="32.195" height="61.262"/>
		<rect x="41.781" y="1536.43" style="fill:#C5E6F5;" width="172.309" height="61.262"/>
		<rect x="223.664" y="1536.43" style="fill:#C5E6F5;" width="172.309" height="61.262"/>
		<rect x="405.547" y="1536.43" style="fill:#C5E6F5;" width="172.309" height="61.262"/>
		<rect x="587.426" y="1536.43" style="fill:#C5E6F5;" width="172.309" height="61.262"/>
		<rect x="769.309" y="1536.43" style="fill:#C5E6F5;" width="172.309" height="61.262"/>
		<rect x="951.199" y="1536.43" style="fill:#C5E6F5;" width="172.309" height="61.262"/>
		<rect x="1133.07" y="1536.43" style="fill:#C5E6F5;" width="172.309" height="61.262"/>
		<rect x="1314.961" y="1536.43" style="fill:#C5E6F5;" width="172.309" height="61.262"/>
		<rect x="1496.844" y="1536.43" style="fill:#C5E6F5;" width="172.309" height="61.262"/>
		<rect x="1678.727" y="1536.43" style="fill:#C5E6F5;" width="172.309" height="61.262"/>
		<rect x="1860.605" y="1536.43" style="fill:#C5E6F5;" width="97.945" height="61.262"/>
		<rect x="0.004" y="1613.016" style="fill:#C5E6F5;" width="132.957" height="61.262"/>
		<rect x="142.535" y="1613.016" style="fill:#C5E6F5;" width="172.309" height="61.262"/>
		<rect x="324.418" y="1613.016" style="fill:#C5E6F5;" width="172.309" height="61.262"/>
		<rect x="506.297" y="1613.016" style="fill:#C5E6F5;" width="172.309" height="61.262"/>
		<rect x="688.188" y="1613.016" style="fill:#C5E6F5;" width="172.309" height="61.262"/>
		<rect x="870.063" y="1613.016" style="fill:#C5E6F5;" width="172.309" height="61.262"/>
		<rect x="1051.953" y="1613.016" style="fill:#C5E6F5;" width="172.309" height="61.262"/>
		<rect x="1233.832" y="1613.016" style="fill:#C5E6F5;" width="172.309" height="61.262"/>
		<rect x="1415.719" y="1613.016" style="fill:#C5E6F5;" width="172.309" height="61.262"/>
		<rect x="1597.598" y="1613.016" style="fill:#C5E6F5;" width="172.309" height="61.262"/>
		<rect x="1779.488" y="1613.016" style="fill:#C5E6F5;" width="172.309" height="61.262"/>
		<rect x="0.004" y="1693.418" style="fill:#C5E6F5;" width="32.195" height="61.262"/>
		<rect x="41.781" y="1693.418" style="fill:#C5E6F5;" width="172.309" height="61.262"/>
		<rect x="223.664" y="1693.418" style="fill:#C5E6F5;" width="172.309" height="61.262"/>
		<rect x="405.547" y="1693.418" style="fill:#C5E6F5;" width="172.309" height="61.262"/>
		<rect x="587.426" y="1693.418" style="fill:#C5E6F5;" width="172.309" height="61.262"/>
		<rect x="769.309" y="1693.418" style="fill:#C5E6F5;" width="172.309" height="61.262"/>
		<rect x="951.199" y="1693.418" style="fill:#C5E6F5;" width="172.309" height="61.262"/>
		<rect x="1133.07" y="1693.418" style="fill:#C5E6F5;" width="172.309" height="61.262"/>
		<rect x="1314.961" y="1693.418" style="fill:#C5E6F5;" width="172.309" height="61.262"/>
		<rect x="1496.844" y="1693.418" style="fill:#C5E6F5;" width="172.309" height="61.262"/>
		<rect x="1678.727" y="1693.418" style="fill:#C5E6F5;" width="172.309" height="61.262"/>
		<rect x="1860.605" y="1693.418" style="fill:#C5E6F5;" width="97.945" height="61.262"/>
		<rect x="0.004" y="1770" style="fill:#C5E6F5;" width="132.957" height="61.262"/>
		<rect x="142.535" y="1770" style="fill:#C5E6F5;" width="172.309" height="61.262"/>
		<rect x="324.418" y="1770" style="fill:#C5E6F5;" width="172.309" height="61.262"/>
		<rect x="506.297" y="1770" style="fill:#C5E6F5;" width="172.309" height="61.262"/>
		<rect x="688.188" y="1770" style="fill:#C5E6F5;" width="172.309" height="61.262"/>
		<rect x="870.063" y="1770" style="fill:#C5E6F5;" width="172.309" height="61.262"/>
		<rect x="1051.953" y="1770" style="fill:#C5E6F5;" width="172.309" height="61.262"/>
		<rect x="1233.832" y="1770" style="fill:#C5E6F5;" width="172.309" height="61.262"/>
		<rect x="1415.719" y="1770" style="fill:#C5E6F5;" width="172.309" height="61.262"/>
		<rect x="1597.598" y="1770" style="fill:#C5E6F5;" width="172.309" height="61.262"/>
		<rect x="1779.488" y="1770" style="fill:#C5E6F5;" width="172.309" height="61.262"/>
		<rect x="0.004" y="1850.402" style="fill:#C5E6F5;" width="32.195" height="61.262"/>
		<rect x="41.781" y="1850.402" style="fill:#C5E6F5;" width="172.309" height="61.262"/>
		<rect x="223.664" y="1850.402" style="fill:#C5E6F5;" width="172.309" height="61.262"/>
		<rect x="405.547" y="1850.402" style="fill:#C5E6F5;" width="172.309" height="61.262"/>
		<rect x="587.426" y="1850.402" style="fill:#C5E6F5;" width="172.309" height="61.262"/>
		<rect x="769.309" y="1850.402" style="fill:#C5E6F5;" width="172.309" height="61.262"/>
		<rect x="951.199" y="1850.402" style="fill:#C5E6F5;" width="172.309" height="61.262"/>
		<rect x="1133.07" y="1850.402" style="fill:#C5E6F5;" width="172.309" height="61.262"/>
		<rect x="1314.961" y="1850.402" style="fill:#C5E6F5;" width="172.309" height="61.262"/>
		<rect x="1496.844" y="1850.402" style="fill:#C5E6F5;" width="172.309" height="61.262"/>
		<rect x="1678.727" y="1850.402" style="fill:#C5E6F5;" width="172.309" height="61.262"/>
		<rect x="1860.605" y="1850.402" style="fill:#C5E6F5;" width="97.945" height="61.262"/>
		<rect x="0.004" y="1926.988" style="fill:#C5E6F5;" width="132.957" height="61.262"/>
		<rect x="142.535" y="1926.988" style="fill:#C5E6F5;" width="172.309" height="61.262"/>
		<rect x="324.418" y="1926.988" style="fill:#C5E6F5;" width="172.309" height="61.262"/>
		<rect x="506.297" y="1926.988" style="fill:#C5E6F5;" width="172.309" height="61.262"/>
		<rect x="688.188" y="1926.988" style="fill:#C5E6F5;" width="172.309" height="61.262"/>
		<rect x="870.063" y="1926.988" style="fill:#C5E6F5;" width="172.309" height="61.262"/>
		<rect x="1051.953" y="1926.988" style="fill:#C5E6F5;" width="172.309" height="61.262"/>
		<rect x="1233.832" y="1926.988" style="fill:#C5E6F5;" width="172.309" height="61.262"/>
		<rect x="1415.719" y="1926.988" style="fill:#C5E6F5;" width="172.309" height="61.262"/>
		<rect x="1597.598" y="1926.988" style="fill:#C5E6F5;" width="172.309" height="61.262"/>
		<rect x="1779.488" y="1926.988" style="fill:#C5E6F5;" width="172.309" height="61.262"/>
		<rect x="0.004" y="2007.387" style="fill:#C5E6F5;" width="32.195" height="61.262"/>
		<rect x="41.781" y="2007.387" style="fill:#C5E6F5;" width="172.309" height="61.262"/>
		<rect x="223.664" y="2007.387" style="fill:#C5E6F5;" width="172.309" height="61.262"/>
		<rect x="405.547" y="2007.387" style="fill:#C5E6F5;" width="172.309" height="61.262"/>
		<rect x="587.426" y="2007.387" style="fill:#C5E6F5;" width="172.309" height="61.262"/>
		<rect x="769.309" y="2007.387" style="fill:#C5E6F5;" width="172.309" height="61.262"/>
		<rect x="951.199" y="2007.387" style="fill:#C5E6F5;" width="172.309" height="61.262"/>
		<rect x="1133.07" y="2007.387" style="fill:#C5E6F5;" width="172.309" height="61.262"/>
		<rect x="1314.961" y="2007.387" style="fill:#C5E6F5;" width="172.309" height="61.262"/>
		<rect x="1496.844" y="2007.387" style="fill:#C5E6F5;" width="172.309" height="61.262"/>
		<rect x="1678.727" y="2007.387" style="fill:#C5E6F5;" width="172.309" height="61.262"/>
		<rect x="1860.605" y="2007.387" style="fill:#C5E6F5;" width="97.945" height="61.262"/>
		<rect x="0.004" y="2083.973" style="fill:#C5E6F5;" width="132.957" height="61.262"/>
		<rect x="142.535" y="2083.973" style="fill:#C5E6F5;" width="172.309" height="61.262"/>
		<rect x="324.418" y="2083.973" style="fill:#C5E6F5;" width="172.309" height="61.262"/>
		<rect x="506.297" y="2083.973" style="fill:#C5E6F5;" width="172.309" height="61.262"/>
		<rect x="688.188" y="2083.973" style="fill:#C5E6F5;" width="172.309" height="61.262"/>
		<rect x="870.063" y="2083.973" style="fill:#C5E6F5;" width="172.309" height="61.262"/>
		<rect x="1051.953" y="2083.973" style="fill:#C5E6F5;" width="172.309" height="61.262"/>
		<rect x="1233.832" y="2083.973" style="fill:#C5E6F5;" width="172.309" height="61.262"/>
		<rect x="1415.719" y="2083.973" style="fill:#C5E6F5;" width="172.309" height="61.262"/>
		<rect x="1597.598" y="2083.973" style="fill:#C5E6F5;" width="172.309" height="61.262"/>
		<rect x="1779.488" y="2083.973" style="fill:#C5E6F5;" width="172.309" height="61.262"/>
		<rect x="0.004" y="2164.371" style="fill:#C5E6F5;" width="32.195" height="61.262"/>
		<rect x="41.781" y="2164.371" style="fill:#C5E6F5;" width="172.309" height="61.262"/>
		<rect x="223.664" y="2164.371" style="fill:#C5E6F5;" width="172.309" height="61.262"/>
		<rect x="405.547" y="2164.371" style="fill:#C5E6F5;" width="172.309" height="61.262"/>
		<rect x="587.426" y="2164.371" style="fill:#C5E6F5;" width="172.309" height="61.262"/>
		<rect x="769.309" y="2164.371" style="fill:#C5E6F5;" width="172.309" height="61.262"/>
		<rect x="951.199" y="2164.371" style="fill:#C5E6F5;" width="172.309" height="61.262"/>
		<rect x="1133.07" y="2164.371" style="fill:#C5E6F5;" width="172.309" height="61.262"/>
		<rect x="1314.961" y="2164.371" style="fill:#C5E6F5;" width="172.309" height="61.262"/>
		<rect x="1496.844" y="2164.371" style="fill:#C5E6F5;" width="172.309" height="61.262"/>
		<rect x="1678.727" y="2164.371" style="fill:#C5E6F5;" width="172.309" height="61.262"/>
		<rect x="1860.605" y="2164.371" style="fill:#C5E6F5;" width="97.945" height="61.262"/>
		<rect x="0.004" y="2240.957" style="fill:#C5E6F5;" width="132.957" height="56.66"/>
		<rect x="142.535" y="2240.957" style="fill:#C5E6F5;" width="172.309" height="56.66"/>
		<rect x="324.418" y="2240.957" style="fill:#C5E6F5;" width="172.309" height="56.66"/>
		<rect x="506.297" y="2240.957" style="fill:#C5E6F5;" width="172.309" height="56.66"/>
		<rect x="688.188" y="2240.957" style="fill:#C5E6F5;" width="172.309" height="56.66"/>
		<rect x="870.063" y="2240.957" style="fill:#C5E6F5;" width="172.309" height="56.66"/>
		<rect x="1051.953" y="2240.957" style="fill:#C5E6F5;" width="172.309" height="56.66"/>
		<rect x="1233.832" y="2240.957" style="fill:#C5E6F5;" width="172.309" height="56.66"/>
		<rect x="1415.719" y="2240.957" style="fill:#C5E6F5;" width="172.309" height="56.66"/>
		<rect x="1597.598" y="2240.957" style="fill:#C5E6F5;" width="172.309" height="56.66"/>
		<rect x="1779.488" y="2240.957" style="fill:#C5E6F5;" width="172.309" height="56.66"/>
	</g>
	<rect x="0.004" style="fill:#A7D9F0;" width="1958.547" height="200.141"/>
	<rect x="0.004" y="1831.262" style="fill:#608293;" width="1958.547" height="466.348"/>
	<rect x="0.004" y="1831.262" style="fill:#A7D9F0;" width="1958.547" height="49.754"/>
	<g>
		<rect x="272.043" y="453.902" style="fill:#B0AFB5;" width="654.152" height="951.941"/>
		<g>
			<g>
				<rect x="258.703" y="438.668" style="fill:#F8F6CE;" width="654.152" height="951.941"/>
				<rect x="288.078" y="475.16" style="fill:#809A9D;" width="595.402" height="878.957"/>
				<linearGradient id="SVGID_1_" gradientUnits="userSpaceOnUse" x1="588.3174" y1="518.2601" x2="591.6727" y2="1313.2977">
					<stop  offset="0" style="stop-color:#84BDD9"/>
					<stop  offset="1" style="stop-color:#C2E4F0"/>
				</linearGradient>
				<polygon style="fill:url(#SVGID_1_);" points="883.48,475.16 886.023,1343.012 296.453,1343.012 296.453,475.16 				"/>
				<polygon style="opacity:0.4;fill:#608D9E;" points="883.48,1348.473 883.48,933.766 844.477,933.766 844.477,970.246 
					796.691,970.246 796.691,850.742 701.973,850.742 701.973,1016.789 649.07,1016.789 649.07,933.766 567.156,933.766 
					567.156,1063.344 521.934,1063.344 521.934,999.176 448.543,999.176 448.543,1085.973 439.164,1085.973 439.164,957.672 
					380,957.672 380,1085.973 368.34,1085.973 368.34,999.176 315.438,999.176 315.438,1009.668 287.27,1009.668 287.27,1348.473 
									"/>
				<polygon style="fill:#608D9E;" points="883.48,1351.008 883.48,1091.031 849.519,1091.031 849.519,1127.926 823.07,1127.926 
					823.07,1058.32 752.258,1058.32 752.258,1107.164 718.438,1107.164 718.438,1218.5 701.996,1218.5 701.996,1137.988 
					659.809,1137.988 659.809,1080.969 589.699,1080.969 589.699,1173.215 543.031,1173.215 543.031,1121.23 498.199,1121.23 
					498.199,1193.34 464.938,1193.34 464.938,1121.23 390.629,1121.23 390.629,1173.215 332.121,1173.215 332.121,1147.246 
					287.27,1147.246 287.27,1351.008 				"/>
				
					<linearGradient id="SVGID_00000031899427814868217170000015213909779733476500_" gradientUnits="userSpaceOnUse" x1="525.6002" y1="430.2553" x2="525.6002" y2="480.5704" gradientTransform="matrix(1 0 0 1 -89.3555 88.6179)">
					<stop  offset="0" style="stop-color:#FFFFFF"/>
					<stop  offset="1" style="stop-color:#C2E4F0"/>
				</linearGradient>
				<path style="fill:url(#SVGID_00000031899427814868217170000015213909779733476500_);" d="M329.434,571.871h216.531
					c0,0,18.797-13.922-20.871-12.531c0,0,13.914-20.269-17.406-15.301c0,0-9.738-36.895-44.539-10.441
					c0,0-37.996-60.547-73.281-1.395c0,0-63.82-22.266-40.852,22.965C349.016,555.168,305.066,555.168,329.434,571.871z"/>
				
					<linearGradient id="SVGID_00000084513646620196162550000010534215930187410609_" gradientUnits="userSpaceOnUse" x1="701.401" y1="615.8395" x2="701.401" y2="644.7704" gradientTransform="matrix(1 0 0 1 -89.3555 88.6179)">
					<stop  offset="0" style="stop-color:#FFFFFF"/>
					<stop  offset="1" style="stop-color:#C2E4F0"/>
				</linearGradient>
				<path style="fill:url(#SVGID_00000084513646620196162550000010534215930187410609_);" d="M542.094,739.773h141.813
					c0,0,12.289-9.121-13.68-8.203c0,0,9.121-13.281-11.391-10.027c0,0-6.391-24.152-29.184-6.832c0,0-24.871-39.656-47.98-0.91
					c0,0-41.801-14.582-26.754,15.035C554.918,728.836,526.148,728.836,542.094,739.773z"/>
				
					<linearGradient id="SVGID_00000166646504498161887070000002791838682463502245_" gradientUnits="userSpaceOnUse" x1="857.3445" y1="646.3887" x2="857.3445" y2="687.9045" gradientTransform="matrix(1 0 0 1 -89.3555 88.6179)">
					<stop  offset="0" style="stop-color:#FFFFFF"/>
					<stop  offset="1" style="stop-color:#C2E4F0"/>
				</linearGradient>
				<path style="fill:url(#SVGID_00000166646504498161887070000002791838682463502245_);" d="M850.883,786.754H682.84
					c0,0-14.59-10.805,16.207-9.715c0,0-10.816-15.75,13.5-11.891c0,0,7.555-28.629,34.563-8.102c0,0,29.484-46.992,56.879-1.086
					c0,0,49.527-17.277,31.691,17.824C835.68,773.785,869.789,773.785,850.883,786.754z"/>
				
					<linearGradient id="SVGID_00000060720415181473127660000012301963645992662400_" gradientUnits="userSpaceOnUse" x1="660.908" y1="474.0203" x2="662.166" y2="536.9227" gradientTransform="matrix(1 0 0 1 -89.3555 88.6179)">
					<stop  offset="0" style="stop-color:#FFFFFF"/>
					<stop  offset="1" style="stop-color:#C2E4F0"/>
				</linearGradient>
				<path style="fill:url(#SVGID_00000060720415181473127660000012301963645992662400_);" d="M465.824,624.641h216.539
					c0,0,18.797-13.922-20.883-12.531c0,0,13.918-20.27-17.398-15.313c0,0-9.742-36.883-44.535-10.441
					c0,0-37.996-60.543-73.289-1.391c0,0-63.824-22.269-40.859,22.961C485.398,607.926,441.469,607.926,465.824,624.641z"/>
				<g style="opacity:0.2;">
					<polygon style="fill:#FFFFFF;" points="337.355,1343.012 559.113,1343.012 296.453,1155.254 296.453,1313.777 					"/>
					<polygon style="fill:#FFFFFF;" points="296.453,1069.277 296.453,1123.012 604.207,1343.012 679.387,1343.012 					"/>
					<polygon style="fill:#FFFFFF;" points="296.453,636.723 296.453,715.981 885.414,1136.98 885.176,1057.555 					"/>
					<polygon style="fill:#FFFFFF;" points="296.453,577.617 296.453,604.484 885.09,1025.25 885.008,998.324 					"/>
					<polygon style="fill:#FFFFFF;" points="727.254,475.16 559.051,475.16 884.16,707.555 883.813,587.074 					"/>
					<polygon style="fill:#FFFFFF;" points="859.176,475.16 783.719,475.16 883.688,546.621 883.531,492.57 					"/>
					<polygon style="fill:#FFFFFF;" points="886,1338.637 885.965,1326.789 296.453,905.394 296.453,932.262 871.066,1343.012 
						882.863,1343.012 					"/>
				</g>
			</g>
			<g>
				<rect x="287.27" y="1127.512" style="fill:#809A9D;" width="598.754" height="22.223"/>
				<rect x="287.27" y="656.277" style="fill:#809A9D;" width="598.754" height="22.223"/>
			</g>
			<g>
				<rect x="287.27" y="1133.594" style="fill:#F8F6CE;" width="598.754" height="22.23"/>
				<rect x="287.27" y="662.356" style="fill:#F8F6CE;" width="598.754" height="22.223"/>
			</g>
		</g>
	</g>
</g>
<g>
	<path style="fill:#BDBEC4;" d="M413.91,1996.852c0,9.043-43.672,16.379-97.547,16.379c-53.871,0-97.547-7.336-97.547-16.379
		c0-9.039,43.676-16.371,97.547-16.371C370.238,1980.48,413.91,1987.813,413.91,1996.852z"/>
	<path style="fill:#BDBEC4;" d="M644.969,2023.551c0,9.043-63,16.375-140.715,16.375c-77.719,0-140.727-7.332-140.727-16.375
		c0-9.047,63.008-16.379,140.727-16.379C581.969,2007.172,644.969,2014.504,644.969,2023.551z"/>
	<g>
		<g>
			<g>
				<path style="fill:#2D4A6A;" d="M564.609,1750.563v-33.391l-55.406,28.578c19.809,35.594,12.922,13.516,24.297,9.625
					l18.027-6.125c-0.09,36.223,42.137,43.301,42.137,32.094C563.418,1775.219,564.609,1750.563,564.609,1750.563z"/>
				<g>
					<g>
						<g>
							<path style="fill:#182F46;" d="M547.285,1749.418l-18.035,6.113c-4.781,1.633-6.332,6.496-8.004,8.922
								c5.242,4.973,4.402-6.398,12.254-9.078l18.027-6.125L547.285,1749.418z"/>
						</g>
						<g>
							<path style="fill:#182F46;" d="M564.609,1750.563v-33.391l-4.23,2.188v31.359c0,0-1.207,24.66,29.039,30.781
								c0,2.535-2.156,4.121-5.504,4.668c5.645,0.387,9.75-1.336,9.75-4.824C563.418,1775.219,564.609,1750.563,564.609,1750.563z"
								/>
						</g>
					</g>
				</g>
			</g>
			<g>
				<g>
					<rect x="588.402" y="1704.512" style="fill:#2D4A6A;" width="19.941" height="21.281"/>
					<rect x="588.402" y="1717.172" style="fill:#182F46;" width="19.941" height="8.281"/>
					<rect x="588.402" y="1706.949" style="fill:#406F95;" width="19.941" height="4.141"/>
				</g>
				<polygon style="fill:#E96F4C;" points="482.977,1703.047 444.547,1744.895 457.973,1771.117 509.203,1771.117 517.742,1755.391 
					573.957,1726.867 590.953,1726.867 590.953,1703.047 				"/>
				<polygon style="opacity:0.1;fill:#FFFFFF;" points="456.574,1753.941 495.016,1712.078 590.953,1712.078 590.953,1703.047 
					482.977,1703.047 444.547,1744.895 457.973,1771.117 				"/>
				<path style="opacity:0.3;fill:#FFFFFF;" d="M580.758,1706.723c0,1.461-19.758,2.652-44.137,2.652
					c-24.383,0-44.137-1.191-44.137-2.652s19.754-2.656,44.137-2.656C561,1704.066,580.758,1705.262,580.758,1706.723z"/>
				<path style="opacity:0.3;fill:#FFFFFF;" d="M477.227,1715.551c-4.762,5.18-7.742,10.18-6.691,11.156
					c1.07,0.977,5.797-2.438,10.563-7.613c4.758-5.176,7.762-10.168,6.691-11.148
					C486.723,1706.961,482.008,1710.371,477.227,1715.551z"/>
			</g>
			<g>
				<path style="fill:#7CC5D0;" d="M568.199,1905.953c0,0,0,0.012,0.016,0c0-0.039-50.402-34.047-56.183-117.598h-59.164
					l-41.258,235.195h123.254c35.078,0,63.512-28.438,63.512-63.527C598.375,1937.172,586.313,1917.148,568.199,1905.953z"/>
				<path style="fill:#A7D7E0;" d="M558.914,1905.953c0,0,0.016,0.012,0.016,0c0-0.035-50.672-30.625-55.867-105.754h-43.863
					l-37.117,211.508h106.863c31.539,0,57.125-25.574,57.125-57.129C586.07,1934.027,575.199,1916.016,558.914,1905.953z"/>
				<path style="fill:#C7E6EB;" d="M497.781,1806.703c3.813-1.832,2.383,24.16,15.426,51.418
					c13.027,27.246,34.922,41.27,31.109,43.102s-27.281-10.895-40.309-38.141C490.965,1835.84,493.969,1808.52,497.781,1806.703z"/>
				<path style="fill:#C7E6EB;" d="M490.859,1809.434c1.023,3.449-0.945,7.082-4.398,8.105c-3.469,1.027-7.094-0.949-8.109-4.402
					c-1.035-3.457,0.945-7.086,4.398-8.113C486.199,1804.004,489.844,1805.965,490.859,1809.434z"/>
				<g>
					<g>
						<path style="fill:#E96F4C;" d="M541.836,1921.051c-3.613-1.742-18.938-9.766-30.102-25.867h-44.926l-17.41,99.223h71.453
							c21.875,0,39.684-17.797,39.684-39.676C560.535,1940.938,553.543,1928.355,541.836,1921.051z"/>
						<path style="fill:#FFFFFF;" d="M543.816,1917.473h0.012l0,0c0-0.012-18.059-8.086-29.914-26.359h-50.543l-18.824,107.379
							h76.305c24.172,0,43.758-19.594,43.758-43.762C564.609,1938.984,556.289,1925.191,543.816,1917.473z M520.852,1994.406
							h-71.453l17.41-99.223h44.926c11.164,16.102,26.488,24.125,30.102,25.867c11.707,7.305,18.699,19.887,18.699,33.68
							C560.535,1976.609,542.727,1994.406,520.852,1994.406z"/>
					</g>
					<g>
						<g>
							<g>
								<g>
									<path style="fill:#C05C3C;" d="M511.359,1945.211c0,9.305-7.543,16.844-16.84,16.844l0,0
										c-9.301,0-16.859-7.539-16.859-16.844v-27.277c0-9.313,7.559-16.848,16.859-16.848l0,0c9.297,0,16.84,7.535,16.84,16.848
										V1945.211z"/>
								</g>
								<g>
									<path style="fill:#843F25;" d="M506.043,1944.195c0,6.379-5.16,11.543-11.523,11.543l0,0
										c-6.367,0-11.543-5.164-11.543-11.543v-25.25c0-6.375,5.176-11.535,11.543-11.535l0,0c6.363,0,11.523,5.16,11.523,11.535
										V1944.195z"/>
								</g>
							</g>
						</g>
						<rect x="460.113" y="1964.234" style="fill:#843F25;" width="69.656" height="4.434"/>
						<rect x="460.113" y="1972.359" style="fill:#843F25;" width="69.656" height="4.418"/>
						<rect x="460.113" y="1980.48" style="fill:#843F25;" width="69.656" height="4.418"/>
					</g>
				</g>
			</g>
			<g>
				<g>
					<path style="fill:#2D4A6A;" d="M520.66,1785.203c0,2.27-1.848,4.109-4.106,4.109h-62.945c-2.262,0-4.109-1.84-4.109-4.109
						v-13.727c0-2.262,1.848-4.102,4.109-4.102h62.945c2.258,0,4.106,1.84,4.106,4.102V1785.203z"/>
					<path style="fill:#182F46;" d="M517.535,1767.512v16.895c0,1.996-1.621,3.629-3.621,3.629h-57.668
						c-2,0-3.625-1.633-3.625-3.629v-16.895c-1.793,0.438-3.121,2.047-3.121,3.965v13.727c0,2.27,1.848,4.109,4.109,4.109h62.945
						c2.258,0,4.106-1.84,4.106-4.109v-13.727C520.66,1769.559,519.332,1767.953,517.535,1767.512z"/>
					<g>
						<path style="fill:#182F46;" d="M459.199,1769.891c-0.691,0-1.227,0.547-1.227,1.227v17.551h2.438v-17.551
							C460.41,1770.438,459.871,1769.891,459.199,1769.891z"/>
						<path style="fill:#182F46;" d="M465.844,1769.891c-0.676,0-1.211,0.547-1.211,1.227v17.551h2.434v-17.551
							C467.066,1770.438,466.531,1769.891,465.844,1769.891z"/>
						<path style="fill:#182F46;" d="M472.504,1769.891c-0.676,0-1.207,0.547-1.207,1.227v17.551h2.43v-17.551
							C473.727,1770.438,473.176,1769.891,472.504,1769.891z"/>
						<path style="fill:#182F46;" d="M479.16,1769.891c-0.668,0-1.223,0.547-1.223,1.227v17.551h2.449v-17.551
							C480.387,1770.438,479.836,1769.891,479.16,1769.891z"/>
						<path style="fill:#182F46;" d="M485.82,1769.891c-0.672,0-1.223,0.547-1.223,1.227v17.551h2.449v-17.551
							C487.047,1770.438,486.496,1769.891,485.82,1769.891z"/>
						<path style="fill:#182F46;" d="M492.484,1769.891c-0.672,0-1.227,0.547-1.227,1.227v17.551h2.449v-17.551
							C493.707,1770.438,493.156,1769.891,492.484,1769.891z"/>
						<g>
							<rect x="461.078" y="1768.371" style="fill:#406F95;" width="1.52" height="18.648"/>
							<rect x="467.738" y="1768.371" style="fill:#406F95;" width="1.516" height="18.648"/>
							<rect x="474.402" y="1768.371" style="fill:#406F95;" width="1.516" height="18.648"/>
							<rect x="481.059" y="1768.371" style="fill:#406F95;" width="1.52" height="18.648"/>
							<rect x="487.699" y="1768.371" style="fill:#406F95;" width="1.539" height="18.648"/>
							<rect x="494.363" y="1768.371" style="fill:#406F95;" width="1.52" height="18.648"/>
							<polygon style="fill:#406F95;" points="455.938,1787.02 454.418,1785.551 454.418,1768.371 455.938,1768.371 							"/>
						</g>
						<path style="fill:#182F46;" d="M499.145,1769.891c-0.672,0-1.227,0.547-1.227,1.227v17.551h2.449v-17.551
							C500.367,1770.438,499.813,1769.891,499.145,1769.891z"/>
						<path style="fill:#182F46;" d="M505.805,1769.891c-0.676,0-1.23,0.547-1.23,1.227v17.551h2.453v-17.551
							C507.027,1770.438,506.477,1769.891,505.805,1769.891z"/>
						<path style="fill:#182F46;" d="M512.461,1769.891c-0.668,0-1.223,0.547-1.223,1.227v17.551h2.453v-17.551
							C513.691,1770.438,513.133,1769.891,512.461,1769.891z"/>
						<g>
							<rect x="501.023" y="1768.371" style="fill:#406F95;" width="1.52" height="18.648"/>
							<rect x="507.684" y="1768.371" style="fill:#406F95;" width="1.52" height="18.648"/>
							<rect x="514.348" y="1768.371" style="fill:#406F95;" width="1.516" height="18.648"/>
						</g>
					</g>
				</g>
			</g>
		</g>
		<g>
			<g>
				<path style="fill:#E96F4C;" d="M228.316,1712.559v-55.977l27.793-39.645l55.168,10.383c0,0,48.051,10.566,48.242,55.031
					c0,17.328-6.746,38.363-17.727,55.602l12.059,233.176c0,15.848-12.855,28.695-28.711,28.695h-62.457
					c-15.855,0-28.711-12.848-28.711-28.695l12.063-233.176C234.422,1736,228.316,1723.441,228.316,1712.559z"/>
				<path style="opacity:0.1;fill:#FFFFFF;" d="M235.168,1708.941c7.48-81.539,115.438-7.117,96.945,23.066l9.609,233.086
					c0,12.648-10.254,22.906-22.898,22.906H269c-12.664,0-22.898-10.258-22.898-22.906l9.609-233.086
					C244.52,1732.668,235.168,1722.781,235.168,1708.941z"/>
				<path style="opacity:0.1;fill:#FFFFFF;" d="M345.715,1710.57c-8.035,10.172-16.863-21.367-41.637-36.242
					c-24.773-14.879-61.969-16.203-53.938-26.379c8.047-10.176,58.586-20.469,83.359-5.586
					C358.273,1657.238,353.762,1700.406,345.715,1710.57z"/>
				<path style="opacity:0.3;fill:#FFFFFF;" d="M294.777,1639.156c-1.582,2.438,16.883,3.199,31.871,12.922
					c14.992,9.727,20.812,24.754,22.395,22.309c1.598-2.449-3.246-18.445-18.23-28.172
					C315.82,1636.492,296.379,1636.719,294.777,1639.156z"/>
				<path style="opacity:0.3;fill:#FFFFFF;" d="M275.488,1679.668c-3.281,2.113,19.813,14.535,33.813,36.191
					c14.012,21.668,13.637,44.383,16.914,42.258c3.281-2.117,5.43-25.473-8.574-47.129
					C303.625,1689.32,278.77,1677.539,275.488,1679.668z"/>
				<path style="opacity:0.3;fill:#FFFFFF;" d="M294.141,1650.715c-1.184,3.977,1.09,8.156,5.063,9.328
					c3.988,1.176,8.152-1.09,9.332-5.066c1.184-3.977-1.09-8.156-5.066-9.332C299.5,1644.473,295.313,1646.738,294.141,1650.715z"/>
				<g>
					<polygon style="fill:#F6C08E;" points="252.676,1943.063 335.152,1943.063 329.359,1799.094 258.469,1799.094 					"/>
					<g>
						<g>
							<g>
								<path style="fill:#BD916C;" d="M268.547,1875.777c0,14.004,11.344,25.363,25.363,25.363l0,0
									c14.02,0,25.367-11.359,25.367-25.363v-41.086c0-14.012-11.348-25.371-25.367-25.371l0,0
									c-14.02,0-25.363,11.359-25.363,25.371V1875.777z"/>
							</g>
							<g>
								<path style="fill:#957253;" d="M276.543,1874.246c0,9.598,7.777,17.371,17.367,17.371l0,0
									c9.598,0,17.367-7.773,17.367-17.371v-38.035c0-9.586-7.77-17.367-17.367-17.367l0,0c-9.59,0-17.367,7.781-17.367,17.367
									V1874.246z"/>
							</g>
						</g>
					</g>
					<rect x="269.832" y="1904.426" style="fill:#957253;" width="48.176" height="6.66"/>
					<rect x="269.832" y="1916.645" style="fill:#957253;" width="48.176" height="6.668"/>
					<rect x="269.832" y="1928.871" style="fill:#957253;" width="48.176" height="6.664"/>
				</g>
			</g>
			<g>
				<path style="fill:#2D4A6A;" d="M221.707,1641.789c5.793,4.512,14.141,3.473,18.648-2.309l5.727-7.371
					c4.516-5.789,3.473-14.133-2.328-18.633l-12.664-9.859c-5.773-4.504-14.121-3.469-18.629,2.316l-5.723,7.363
					c-4.516,5.781-3.473,14.137,2.301,18.633L221.707,1641.789z"/>
				<path style="fill:#182F46;" d="M239.609,1610.234l4.145,3.242c5.801,4.5,6.844,12.844,2.328,18.633l-5.727,7.371
					c-4.508,5.781-12.855,6.82-18.648,2.309l-3.125-2.422L239.609,1610.234z"/>
				<g>
					<path style="fill:#2D4A6A;" d="M227.934,1652.891c1.543,1.195,3.75,0.91,4.926-0.609l23.805-30.555
						c1.18-1.531,0.898-3.742-0.621-4.93l-9.25-7.207c-1.527-1.188-3.73-0.914-4.926,0.609l-23.805,30.555
						c-1.176,1.531-0.902,3.742,0.629,4.93L227.934,1652.891z"/>
					<path style="fill:#182F46;" d="M217.645,1641.488l11.402,8.875c1.348,1.051,3.297,0.805,4.34-0.539l21.02-26.992
						c1.063-1.352,0.82-3.293-0.535-4.352l-11.398-8.875c1.234-0.969,3.02-1.027,4.32-0.016l9.25,7.207
						c1.52,1.188,1.801,3.398,0.621,4.93l-23.805,30.555c-1.176,1.52-3.383,1.805-4.926,0.609l-9.242-7.207
						C217.383,1644.668,217.004,1642.93,217.645,1641.488z"/>
					<path style="fill:#182F46;" d="M240.637,1615.293c0.348-0.465,1.008-0.547,1.473-0.191l11.828,9.219l-1.277,1.652
						l-11.852-9.219C240.355,1616.398,240.27,1615.742,240.637,1615.293z"/>
					<path style="fill:#182F46;" d="M237.125,1619.781c0.367-0.461,1.012-0.543,1.48-0.184l11.832,9.215l-1.285,1.648l-11.828-9.215
						C236.852,1620.891,236.785,1620.23,237.125,1619.781z"/>
					<path style="fill:#182F46;" d="M233.645,1624.27c0.348-0.461,1.004-0.547,1.457-0.18l11.848,9.211l-1.281,1.652l-11.852-9.227
						C233.363,1625.379,233.277,1624.723,233.645,1624.27z"/>
					<path style="fill:#182F46;" d="M230.145,1628.754c0.359-0.445,0.996-0.531,1.465-0.18l11.836,9.223l-1.285,1.645l-11.828-9.215
						C229.863,1629.867,229.793,1629.215,230.145,1628.754z"/>
					<path style="fill:#182F46;" d="M226.648,1633.25c0.352-0.457,1.012-0.539,1.457-0.188l11.836,9.223l-1.285,1.645l-11.832-9.219
						C226.371,1634.363,226.285,1633.703,226.648,1633.25z"/>
					<path style="fill:#182F46;" d="M223.148,1637.742c0.363-0.461,1-0.539,1.477-0.18l11.828,9.211l-1.285,1.66l-11.848-9.227
						C222.871,1638.848,222.785,1638.199,223.148,1637.742z"/>
					<g>
						
							<rect x="243.848" y="1613.203" transform="matrix(0.6152 -0.7884 0.7884 0.6152 -1183.9912 816.5743)" style="fill:#406F95;" width="1.308" height="15.925"/>
						
							<rect x="240.358" y="1617.691" transform="matrix(0.6129 -0.7901 0.7901 0.6129 -1191.2086 819.676)" style="fill:#406F95;" width="1.299" height="15.937"/>
						<polygon style="fill:#406F95;" points="243.395,1635.555 244.195,1634.531 231.609,1624.738 230.816,1625.766 						"/>
						<polygon style="fill:#406F95;" points="239.906,1640.047 240.703,1639.027 228.129,1629.227 227.328,1630.254 						"/>
						<polygon style="fill:#406F95;" points="236.402,1644.539 237.199,1643.52 224.625,1633.719 223.824,1634.746 						"/>
						<polygon style="fill:#406F95;" points="232.898,1649.031 233.715,1648.004 221.137,1638.211 220.336,1639.234 						"/>
						<polygon style="fill:#406F95;" points="253.891,1622.094 253.699,1620.293 242.109,1611.273 241.313,1612.293 						"/>
					</g>
				</g>
				<path style="fill:#406F95;" d="M208.746,1619.734c2.258,3.148,8.625,2.438,14.242-1.586c5.625-4.016,8.344-9.832,6.105-12.961
					c-2.254-3.148-8.617-2.43-14.238,1.594C209.238,1610.801,206.492,1616.605,208.746,1619.734z"/>
				<path style="fill:#708AAB;" d="M209.27,1618.164c0.57,0.797,3.07-4.883,7.945-8.371c4.891-3.496,10.285-3.473,9.734-4.27
					c-0.578-0.793-6.18-1.234-11.055,2.242C211.023,1611.262,208.695,1617.371,209.27,1618.164z"/>
				<path style="fill:#708AAB;" d="M212.809,1619.785c1.09,0.855,2.688,0.652,3.539-0.445c0.848-1.094,0.656-2.684-0.434-3.535
					c-1.109-0.852-2.688-0.656-3.539,0.441C211.523,1617.348,211.715,1618.93,212.809,1619.785z"/>
			</g>
		</g>
		<g>
			<g>
				<path style="fill:#F4D9A6;" d="M532.297,1405.824c-7.996-5.531-25.898,6.332-57.047,49.742
					c17.777-50.391,17.23-71.855,8.125-75.258c-9.121-3.387-23.539,12.52-43.055,62.254c4.828-53.199-0.969-73.891-10.648-74.941
					c-9.656-1.035-19.738,17.938-26.406,70.945c-8.422-52.754-19.137-71.383-28.766-70.008c-9.621,1.363-14.727,22.23-8.121,75.25
					c-21.156-49.055-36.125-64.465-45.113-60.766c-8.996,3.684-8.809,25.172,10.641,74.93
					c-32.582-42.336-50.883-53.594-58.688-47.793c-8.301,6.164-1.594,29.273,35.012,78.574
					c36.629,49.328,91.262,77.563,99.559,71.398c8.484,5.883,57.215-24.09,92.148-74.613
					C534.863,1435.027,540.809,1411.711,532.297,1405.824z"/>
				<path style="fill:#C3AD84;" d="M498.039,1451.422c-5.621-3.883-18.207,4.441-40.063,34.898
					c12.48-35.355,12.102-50.43,5.691-52.813c-6.375-2.375-18.266,11.145-30.195,43.703
					c-23.848,57.246-101.926,36.734-101.926,36.734c26.988,25.605,71.859,48.535,77.68,44.203
					c5.98,4.141,41.555-15.324,66.082-50.777C499.84,1471.91,503.996,1455.551,498.039,1451.422z"/>
				<g>
					<path style="fill:#C3AD84;" d="M482.418,1387.309c-5.758-2.141-15.395,6.957-25.883,28.883
						c8.387-14.625,15.84-20.613,20.652-18.84c7.375,2.746-1.359,50.941-1.359,50.941
						C490.234,1407.457,489.785,1390.059,482.418,1387.309z"/>
					<path style="fill:#C3AD84;" d="M528,1409.59c-5.215-3.258-16.473,3.73-31.133,23.109c11.148-12.645,19.66-17.023,23.977-14.32
						c6.688,4.168-11.52,49.633-11.52,49.633C531.609,1430.898,534.684,1413.758,528,1409.59z"/>
				</g>
				<g>
					<path style="fill:#FAEFD8;" d="M324.258,1390.148c5.754-2.148,15.363,6.953,25.875,28.875
						c-8.402-14.617-15.855-20.613-20.652-18.828c-7.371,2.742,1.359,50.934,1.359,50.934
						C316.438,1410.301,316.859,1392.898,324.258,1390.148z"/>
					<path style="fill:#FAEFD8;" d="M278.656,1412.422c5.207-3.246,16.465,3.73,31.156,23.113
						c-11.176-12.652-19.68-17.027-24.008-14.324c-6.684,4.184,11.516,49.641,11.516,49.641
						C275.039,1433.742,271.969,1416.602,278.656,1412.422z"/>
				</g>
				<g>
					<path style="fill:#FAEFD8;" d="M342.957,1441.559c5.758-2.145,15.379,6.957,25.879,28.883
						c-8.402-14.621-15.851-20.613-20.644-18.836c-7.371,2.75,1.355,50.941,1.355,50.941
						C335.141,1461.707,335.566,1444.309,342.957,1441.559z"/>
				</g>
			</g>
			<g>
				<path style="fill:#E35163;" d="M526.012,1505.363c-7.617-5.25-24.641,6.031-54.281,47.336
					c16.91-47.941,16.406-68.375,7.738-71.594c-8.664-3.23-22.418,11.895-40.969,59.219c4.582-50.621-0.93-70.305-10.121-71.289
					c-9.191-1-18.785,17.051-25.129,67.484c-8.004-50.199-18.207-67.906-27.355-66.609c-9.172,1.305-14.02,21.148-7.746,71.601
					c-20.125-46.676-34.355-61.34-42.926-57.82c-8.547,3.516-8.363,23.953,10.141,71.285c-31.008-40.273-48.406-50.965-55.84-45.465
					c-7.898,5.867-1.52,27.852,33.313,74.77c34.832,46.91,86.812,73.777,94.711,67.914c8.082,5.598,54.449-22.922,87.684-70.98
					C528.465,1533.148,534.094,1510.973,526.012,1505.363z"/>
				<path style="fill:#C94757;" d="M493.391,1548.742c-5.336-3.684-17.293,4.223-38.086,33.211
					c11.863-33.637,11.496-47.984,5.414-50.246c-6.074-2.258-17.395,10.598-28.742,41.57c-22.672,54.469-96.98,34.961-96.98,34.961
					c25.707,24.355,68.391,46.168,73.93,42.043c5.668,3.93,39.531-14.57,62.867-48.305
					C495.125,1568.238,499.086,1552.676,493.391,1548.742z"/>
				<g>
					<g>
						<path style="fill:#C94757;" d="M478.547,1487.758c-5.48-2.043-14.637,6.617-24.613,27.477
							c7.977-13.914,15.074-19.621,19.633-17.922c7.012,2.617-1.289,48.457-1.289,48.457
							C485.977,1506.93,485.57,1490.371,478.547,1487.758z"/>
						<path style="fill:#C94757;" d="M521.914,1508.945c-4.945-3.09-15.676,3.559-29.641,21.996
							c10.629-12.039,18.734-16.195,22.856-13.625c6.344,3.969-10.973,47.227-10.973,47.227
							C525.355,1529.223,528.277,1512.918,521.914,1508.945z"/>
					</g>
				</g>
				<g>
					<g>
						<path style="fill:#EA7D80;" d="M328.07,1490.449c5.48-2.031,14.648,6.625,24.625,27.484
							c-8.004-13.918-15.09-19.617-19.633-17.922c-7.035,2.609,1.27,48.461,1.27,48.461
							C320.637,1509.633,321.043,1493.066,328.07,1490.449z"/>
						<path style="fill:#EA7D80;" d="M284.699,1511.652c4.965-3.094,15.676,3.543,29.633,21.992
							c-10.625-12.043-18.703-16.207-22.828-13.633c-6.363,3.973,10.969,47.23,10.969,47.23
							C281.262,1531.922,278.352,1515.617,284.699,1511.652z"/>
					</g>
				</g>
				<g>
					<g>
						<path style="fill:#EA7D80;" d="M345.867,1539.371c5.477-2.047,14.648,6.605,24.633,27.477
							c-8.008-13.914-15.09-19.617-19.641-17.93c-7.031,2.625,1.27,48.473,1.27,48.473
							C338.438,1558.543,338.844,1541.984,345.867,1539.371z"/>
					</g>
				</g>
			</g>
			<g>
				<path style="fill:#F4D9A6;" d="M503.449,1579.871c-6.203-4.301-20.121,4.914-44.32,38.648
					c13.793-39.145,13.391-55.84,6.297-58.473c-7.07-2.637-18.301,9.719-33.449,48.371c3.75-41.34-0.754-57.414-8.262-58.234
					c-7.523-0.809-15.355,13.945-20.531,55.133c-6.547-41.004-14.867-55.469-22.336-54.402c-7.5,1.059-11.465,17.277-6.328,58.473
					c-16.453-38.117-28.082-50.094-35.074-47.223c-6.969,2.875-6.832,19.566,8.285,58.223
					c-25.313-32.891-39.539-41.629-45.602-37.133c-6.465,4.793-1.23,22.75,27.219,61.066c28.441,38.32,70.91,60.262,77.352,55.473
					c6.605,4.57,44.461-18.715,71.594-57.969C505.453,1602.555,510.063,1584.445,503.449,1579.871z"/>
				<path style="fill:#C3AD84;" d="M476.828,1615.301c-4.367-3.02-14.145,3.453-31.117,27.137
					c9.676-27.492,9.395-39.203,4.43-41.055c-4.973-1.852-14.207,8.66-23.484,33.957c-18.543,44.484-79.215,28.555-79.215,28.555
					c20.977,19.898,55.84,37.711,60.367,34.344c4.652,3.211,32.305-11.902,51.355-39.453
					C478.215,1631.23,481.473,1618.504,476.828,1615.301z"/>
				<g>
					<path style="fill:#C3AD84;" d="M464.68,1565.48c-4.465-1.668-11.941,5.406-20.105,22.445
						c6.531-11.355,12.324-16.023,16.047-14.637c5.738,2.137-1.047,39.582-1.047,39.582
						C470.762,1581.145,470.418,1567.617,464.68,1565.48z"/>
					<path style="fill:#C3AD84;" d="M500.117,1582.789c-4.055-2.52-12.805,2.906-24.203,17.965
						c8.664-9.824,15.273-13.223,18.645-11.125c5.191,3.238-8.945,38.566-8.945,38.566
						C502.926,1599.359,505.305,1586.039,500.117,1582.789z"/>
				</g>
				<g>
					<path style="fill:#FAEFD8;" d="M341.77,1567.691c4.48-1.672,11.961,5.395,20.121,22.434
						c-6.527-11.363-12.32-16.012-16.035-14.637c-5.738,2.137,1.047,39.586,1.047,39.586
						C335.703,1583.355,336.031,1569.82,341.77,1567.691z"/>
					<path style="fill:#FAEFD8;" d="M306.355,1585c4.051-2.531,12.805,2.906,24.203,17.965
						c-8.668-9.832-15.277-13.238-18.648-11.133c-5.195,3.246,8.949,38.574,8.949,38.574
						C303.551,1601.563,301.168,1588.246,306.355,1585z"/>
				</g>
				<g>
					<path style="fill:#FAEFD8;" d="M356.316,1607.637c4.484-1.66,11.957,5.414,20.121,22.449
						c-6.543-11.363-12.324-16.027-16.043-14.641c-5.758,2.145,1.031,39.59,1.031,39.59
						C350.234,1623.305,350.578,1609.773,356.316,1607.637z"/>
				</g>
			</g>
			<g>
				<path style="fill:#E35163;" d="M503.449,1655.016c-6.203-4.289-20.121,4.914-44.32,38.648
					c13.793-39.152,13.391-55.84,6.297-58.477c-7.07-2.629-18.301,9.727-33.449,48.387c3.75-41.355-0.754-57.426-8.262-58.238
					c-7.523-0.809-15.355,13.93-20.531,55.125c-6.547-41.004-14.867-55.465-22.336-54.402c-7.5,1.059-11.465,17.273-6.328,58.48
					c-16.453-38.125-28.082-50.102-35.074-47.23c-6.969,2.867-6.832,19.57,8.285,58.234c-25.313-32.902-39.539-41.648-45.602-37.137
					c-6.465,4.781-1.23,22.742,27.219,61.059c28.441,38.32,70.91,60.27,77.352,55.477c6.605,4.574,44.461-18.727,71.594-57.98
					C505.453,1677.711,510.063,1659.594,503.449,1655.016z"/>
				<path style="fill:#C94757;" d="M476.828,1690.449c-4.367-3.012-14.145,3.449-31.117,27.125
					c9.676-27.477,9.395-39.195,4.43-41.047c-4.973-1.844-14.207,8.668-23.484,33.957c-18.543,44.492-79.215,28.555-79.215,28.555
					c20.977,19.891,55.84,37.703,60.367,34.352c4.652,3.203,32.305-11.91,51.355-39.465
					C478.215,1706.375,481.473,1693.652,476.828,1690.449z"/>
				<g>
					<g>
						<path style="fill:#C94757;" d="M464.68,1640.629c-4.465-1.664-11.941,5.398-20.105,22.441
							c6.531-11.367,12.324-16.023,16.047-14.633c5.738,2.137-1.047,39.582-1.047,39.582
							C470.762,1656.285,470.418,1642.766,464.68,1640.629z"/>
						<path style="fill:#C94757;" d="M500.117,1657.945c-4.055-2.535-12.805,2.895-24.203,17.961
							c8.664-9.832,15.273-13.238,18.645-11.129c5.191,3.234-8.945,38.574-8.945,38.574
							C502.926,1674.496,505.305,1661.188,500.117,1657.945z"/>
					</g>
				</g>
				<g>
					<g>
						<path style="fill:#EA7D80;" d="M341.77,1642.836c4.48-1.66,11.961,5.395,20.121,22.445
							c-6.527-11.371-12.32-16.023-16.035-14.641c-5.738,2.133,1.047,39.578,1.047,39.578
							C335.703,1658.496,336.031,1644.965,341.77,1642.836z"/>
						<path style="fill:#EA7D80;" d="M306.355,1660.148c4.051-2.527,12.805,2.895,24.203,17.957
							c-8.668-9.836-15.277-13.234-18.648-11.129c-5.195,3.246,8.949,38.57,8.949,38.57
							C303.551,1676.703,301.168,1663.387,306.355,1660.148z"/>
					</g>
				</g>
				<g>
					<g>
						<path style="fill:#EA7D80;" d="M356.316,1682.789c4.484-1.664,11.957,5.406,20.121,22.445
							c-6.543-11.375-12.324-16.02-16.043-14.645c-5.758,2.137,1.031,39.586,1.031,39.586
							C350.234,1698.449,350.578,1684.926,356.316,1682.789z"/>
					</g>
				</g>
			</g>
			<g>
				<path style="fill:#F4D9A6;" d="M503.449,1709.172c-6.203-4.301-20.121,4.918-44.32,38.652
					c13.793-39.156,13.391-55.844,6.297-58.48c-7.07-2.637-18.301,9.727-33.449,48.371c3.75-41.344-0.754-57.414-8.262-58.227
					c-7.523-0.813-15.355,13.93-20.531,55.113c-6.547-40.988-14.867-55.453-22.336-54.395c-7.5,1.059-11.465,17.277-6.328,58.473
					c-16.453-38.117-28.082-50.094-35.074-47.215c-6.969,2.867-6.832,19.559,8.285,58.223
					c-25.313-32.902-39.539-41.637-45.602-37.141c-6.465,4.797-1.23,22.75,27.219,61.066c28.441,38.328,70.91,60.266,77.352,55.48
					c6.605,4.582,44.461-18.723,71.594-57.977C505.453,1731.855,510.063,1713.73,503.449,1709.172z"/>
				<path style="fill:#C3AD84;" d="M476.828,1744.598c-4.367-3.012-14.145,3.449-31.117,27.133
					c9.676-27.492,9.395-39.203,4.43-41.047c-4.973-1.852-14.207,8.664-23.484,33.957c-18.543,44.488-79.215,28.543-79.215,28.543
					c20.977,19.895,55.84,37.715,60.367,34.355c4.652,3.207,32.305-11.914,51.355-39.461
					C478.215,1760.527,481.473,1747.801,476.828,1744.598z"/>
				<g>
					<path style="fill:#C3AD84;" d="M464.68,1694.777c-4.465-1.66-11.941,5.402-20.105,22.449
						c6.531-11.371,12.324-16.023,16.047-14.641c5.738,2.137-1.047,39.582-1.047,39.582
						C470.762,1710.445,470.418,1696.91,464.68,1694.777z"/>
					<path style="fill:#C3AD84;" d="M500.117,1712.094c-4.055-2.527-12.805,2.898-24.203,17.949
						c8.664-9.82,15.273-13.219,18.645-11.117c5.191,3.246-8.945,38.566-8.945,38.566
						C502.926,1728.652,505.305,1715.336,500.117,1712.094z"/>
				</g>
				<g>
					<path style="fill:#FAEFD8;" d="M341.77,1696.984c4.48-1.668,11.961,5.402,20.121,22.441
						c-6.527-11.371-12.32-16.027-16.035-14.641c-5.738,2.137,1.047,39.59,1.047,39.59
						C335.703,1712.645,336.031,1699.113,341.77,1696.984z"/>
					<path style="fill:#FAEFD8;" d="M306.355,1714.297c4.051-2.527,12.805,2.895,24.203,17.961
						c-8.668-9.832-15.277-13.23-18.648-11.129c-5.195,3.242,8.949,38.574,8.949,38.574
						C303.551,1730.855,301.168,1717.547,306.355,1714.297z"/>
				</g>
				<g>
					<path style="fill:#FAEFD8;" d="M356.316,1736.941c4.484-1.672,11.957,5.406,20.121,22.449
						c-6.543-11.383-12.324-16.027-16.043-14.645c-5.758,2.137,1.031,39.574,1.031,39.574
						C350.234,1752.602,350.578,1739.078,356.316,1736.941z"/>
				</g>
			</g>
			<g>
				<path style="fill:#792027;" d="M402.902,2024.254c6.082,0,11.008-4.93,11.008-11.023c0-6.086-4.926-11.02-11.008-11.02
					c-6.102,0-11.027,4.934-11.027,11.02C391.875,2019.324,396.801,2024.254,402.902,2024.254z M402.902,2006.309
					c3.816,0,6.91,3.109,6.91,6.922c0,3.824-3.094,6.934-6.91,6.934c-3.84,0-6.934-3.109-6.934-6.934
					C395.969,2009.418,399.063,2006.309,402.902,2006.309z"/>
				<g>
					<rect x="394.031" y="1844.766" style="fill:#C1C1C4;" width="17.738" height="161.285"/>
					<rect x="394.031" y="1844.766" style="fill:#F9F9F9;" width="5.199" height="161.285"/>
					<rect x="406.313" y="1844.766" style="fill:#979597;" width="5.457" height="161.285"/>
				</g>
				<path style="fill:#B22E3C;" d="M386.117,1830.477h33.559c3.73,0,6.762-3.039,6.762-6.762h-47.094
					C379.344,1827.438,382.375,1830.477,386.117,1830.477z"/>
				<rect x="388.598" y="1830.477" style="fill:#B22E3C;" width="28.59" height="15.348"/>
				<rect x="390.297" y="1998.371" style="fill:#B22E3C;" width="25.191" height="7.68"/>
			</g>
		</g>
	</g>
</g>
<g>
	<ellipse style="fill:#D8DADE;" cx="1200.597" cy="2143.59" rx="618.968" ry="61.266"/>
	<g>
		<path style="fill:none;stroke:#D68552;stroke-width:63.8169;stroke-miterlimit:10;" d="M1275.746,737.637
			c0.652,1.332-87.008,141.441-107.832,396.344l-26.973,313.992"/>
		<path style="fill:#FFFFFF;" d="M1140.941,918.004c5.305-210.063,167.855-274.551,167.855-274.551l32.902,152.242
			c-73.176,23.926-87.742,122.309-87.742,122.309S1147.598,918.004,1140.941,918.004z"/>
		<polygon style="fill:#DBDBDB;" points="1276.52,2091.98 1176.367,2113.246 1176.367,2137.172 1346.543,2137.172 1346.543,2091.98 
					"/>
		<path style="fill:#FFFFFF;" d="M1616.875,737.637c-10.195,166.035-61.609,572.953-61.609,572.953
			c-119.809,0-333.258-297.41-333.258-464.82c0-167.406,88.207-191.449,129.859-205.637h217.102
			C1602.664,651.934,1616.875,688.504,1616.875,737.637z"/>
		<path style="fill:#D8DADE;" d="M1329.504,640.133c-57.168,30.434-88.191,102.824-88.191,170.18h43
			c5.5-95.719,12.59-145.348,79.07-170.18H1329.504z"/>
		<path style="fill:#D8DADE;" d="M1535.078,640.133c-57.16,30.434-88.188,102.824-88.188,170.18h42.992
			c5.512-95.719,12.609-145.348,79.086-170.18H1535.078z"/>
		<path style="fill:#27425F;" d="M1222.008,1396.156l26.586,325.719l27.926,366.641c0,0,42.539,30.121,70.461,0l31.906-218.035
			l-11.961-148.605l49.203-325.719H1222.008z"/>
		<path style="fill:#D8DADE;" d="M1319.059,1399.629l-15.941,324.379l22.348,380.402c7.332-0.914,21.516-12.43,21.516-12.43
			l31.906-218.043l-11.961-148.594l49.203-325.715H1319.059z"/>
		<polygon style="fill:#27425F;" points="1584.965,1399.629 1222.008,1399.629 1222.008,810.313 1505.188,810.313 1471.082,1060.32 
			1584.965,1198.59 		"/>
		<path style="fill:#2D4A6A;" d="M1241.313,947.305c6.418,0,11.629,91.727,11.629,204.863c0,113.145-5.211,204.883-11.629,204.883
			c-6.414,0-11.625-91.738-11.625-204.883C1229.688,1039.031,1234.898,947.305,1241.313,947.305z"/>
		<g>
			<polygon style="fill:#DBDBDB;" points="1528.902,2091.98 1467.949,2091.98 1442.699,2113.246 1442.699,2137.172 
				1555.266,2137.172 1555.266,2113.246 			"/>
			<path style="fill:#27425F;" d="M1584.965,1399.629l-9.293,325.031l-45.219,367.32c0,0-33.234,28.563-61.16-1.57l-31.906-218.055
				l11.965-148.594l-58.484-324.133H1584.965z"/>
			<path style="fill:#D8DADE;" d="M1498.984,2106.934c-25.703,0-46.543,3.355-46.543,7.484h93.07
				C1545.512,2110.289,1524.68,2106.934,1498.984,2106.934z"/>
		</g>
		<g>
			<path style="fill:#27425F;" d="M1310.215,640.133c-57.184,30.434-88.207,102.824-88.207,170.18h42.988
				c6.645-107.684,36.344-145.348,102.816-170.18H1310.215z"/>
			<path style="fill:#27425F;" d="M1511.348,640.133c-80.156,24.832-88.195,102.824-88.195,170.18h44.809
				c-2.645-100.152,27.727-140.328,101.008-170.18H1511.348z"/>
		</g>
		<g>
			<path style="fill:#D8DADE;" d="M1438.297,930.656c0,61.785-41.086,111.879-91.754,111.879
				c-50.676,0-91.762-50.094-91.762-111.879c0-61.769,41.086-47.664,91.762-47.664
				C1397.211,882.992,1438.297,868.887,1438.297,930.656z"/>
			<path style="fill:#D8DADE;" d="M1438.262,931.734c0-0.352,0.035-0.711,0.035-1.078c0-61.769-41.086-47.664-91.754-47.664
				c-50.676,0-91.762-14.105-91.762,47.664c0,0.367,0.055,0.727,0.063,1.078H1438.262z"/>
		</g>
		<path style="fill:none;stroke:#D68552;stroke-width:63.8169;stroke-miterlimit:10;" d="M1616.875,737.637
			c0.668,1.332,88.387,159.637,67.555,414.531l-264.984-153.605"/>
		<g>
			<path style="fill:#FAC52F;" d="M1391.988,903.086c0,0,62.5,21.941,42.734,59.219c-19.762,37.266-40.363-9.945-40.363-9.945
				L1391.988,903.086z"/>
			<g>
				<path style="fill:#B89021;" d="M1415.254,951.305c1.402-3.504,15.582-10.434,15.582-10.434s-12.184-25.219-38.848-37.785
					C1406.422,918.129,1411.98,943.805,1415.254,951.305z"/>
			</g>
			<g>
				<polygon style="fill:#F4D9A6;" points="1036.188,2036.156 757.016,1899.98 681.922,1983.66 772.719,2027.949 783.855,2021.773 
					784.938,2033.906 901.332,2090.691 901.332,2090.695 919.586,2087.973 914.5,2097.102 1016.453,2146.848 				"/>
				<g>
					<g>
						<polygon style="fill:#C3AD84;" points="765.086,1903.898 689.98,1987.598 695.418,1990.246 770.523,1906.547 						"/>
					</g>
					<g>
						<polygon style="fill:#C3AD84;" points="778.613,1910.508 703.516,1994.195 708.941,1996.84 784.031,1913.156 						"/>
					</g>
					<g>
						<polygon style="fill:#C3AD84;" points="792.144,1917.098 717.047,2000.789 722.473,2003.438 797.574,1919.75 						"/>
					</g>
					<g>
						<polygon style="fill:#C3AD84;" points="805.668,1923.707 730.582,2007.391 736.016,2010.047 811.102,1926.352 						"/>
					</g>
					<g>
						<polygon style="fill:#C3AD84;" points="819.199,1930.313 744.121,2013.992 749.547,2016.641 824.633,1932.961 						"/>
					</g>
					<g>
						<polygon style="fill:#C3AD84;" points="832.73,1936.914 757.648,2020.586 763.074,2023.242 838.176,1939.563 						"/>
					</g>
					<g>
						<polygon style="fill:#C3AD84;" points="846.269,1943.504 771.18,2027.207 772.719,2027.949 783.855,2021.773 851.707,1946.16 
													"/>
					</g>
					<g>
						<polygon style="fill:#C3AD84;" points="859.797,1950.105 784.703,2033.805 790.141,2036.453 865.234,1952.754 						"/>
					</g>
					<g>
						<polygon style="fill:#C3AD84;" points="1026.414,2031.383 1006.688,2142.086 1001.254,2139.43 1020.981,2028.746 						"/>
					</g>
					<g>
						<polygon style="fill:#C3AD84;" points="1012.887,2024.785 993.164,2135.473 987.723,2132.836 1007.457,2022.137 						"/>
					</g>
					<g>
						<polygon style="fill:#C3AD84;" points="999.363,2018.18 979.625,2128.879 974.199,2126.23 993.93,2015.543 						"/>
					</g>
					<g>
						<polygon style="fill:#C3AD84;" points="985.824,2011.586 966.098,2122.27 960.668,2119.641 980.394,2008.934 						"/>
					</g>
					<g>
						<polygon style="fill:#C3AD84;" points="972.285,2004.984 952.559,2115.684 947.133,2113.039 966.859,2002.34 						"/>
					</g>
					<g>
						<polygon style="fill:#C3AD84;" points="958.75,1998.383 939.027,2109.07 933.598,2106.426 953.328,1995.738 						"/>
					</g>
					<g>
						<polygon style="fill:#C3AD84;" points="945.234,1991.781 925.496,2102.465 920.492,2100.023 939.785,1989.129 						"/>
					</g>
					<g>
						<polygon style="fill:#C3AD84;" points="917.961,1978.488 897.047,2088.594 892.035,2086.141 912.523,1975.836 						"/>
					</g>
					<g>
						<polygon style="fill:#C3AD84;" points="911.324,1975.258 885.41,2082.91 880.394,2080.473 905.879,1972.594 						"/>
					</g>
					<g>
						<polygon style="fill:#C3AD84;" points="870.43,1955.313 796.527,2039.566 801.539,2042.016 875.875,1957.949 						"/>
					</g>
					<g>
						<polygon style="fill:#C3AD84;" points="881.094,1960.488 812.195,2047.215 817.215,2049.656 886.531,1963.16 						"/>
					</g>
					<g>
						<polygon style="fill:#C3AD84;" points="888.652,1964.191 830.719,2056.23 835.727,2058.68 894.086,1966.852 						"/>
					</g>
					<g>
						<polygon style="fill:#C3AD84;" points="905.324,1972.301 868.445,2074.648 863.434,2072.203 899.891,1969.66 						"/>
					</g>
					<g>
						<polygon style="fill:#C3AD84;" points="894.555,1967.063 846.684,2064.02 851.699,2066.473 899.988,1969.703 						"/>
					</g>
					<g>
						<polygon style="fill:#C3AD84;" points="931.695,1985.188 913.215,2088.926 907.141,2089.84 926.262,1982.531 						"/>
					</g>
				</g>
				<path style="fill:#C3AD84;" d="M867.238,1974.34c174.422,88.336,149.215,172.508,149.215,172.508l19.734-110.691
					L757.016,1899.98l-28.551,31.797C769.223,1927.48,814.16,1948.457,867.238,1974.34z"/>
				<path style="fill:#792027;" d="M1459.273,814.269c-9.043-4.406-19.945-0.66-24.355,8.375
					c-4.402,9.043-0.664,19.945,8.383,24.356c9.051,4.414,19.945,0.66,24.352-8.398
					C1472.074,829.578,1468.305,818.668,1459.273,814.269z M1446.266,840.914c-5.668-2.777-8.043-9.613-5.262-15.309
					c2.766-5.664,9.621-8.02,15.297-5.262c5.688,2.777,8.039,9.633,5.258,15.313
					C1458.797,841.328,1451.949,843.684,1446.266,840.914z"/>
				<g>
					<polygon style="fill:#C1C1C4;" points="939.215,1914.098 912.883,1901.242 1432.91,834.879 1459.258,847.723 					"/>
					<polygon style="fill:#F9F9F9;" points="939.215,1914.098 931.496,1910.316 1451.512,843.949 1459.258,847.723 					"/>
					<polygon style="fill:#979597;" points="920.977,1905.191 912.883,1901.242 1432.91,834.879 1441.004,838.809 					"/>
				</g>
				<polygon style="fill:#C94757;" points="749.137,1908.344 757.977,1890.227 811.734,1894.012 1007.188,1989.348 
					1043.27,2029.391 1034.426,2047.512 				"/>
				<polygon style="fill:#B22E3C;" points="749.137,1908.344 753.953,1898.477 1039.238,2037.652 1034.426,2047.512 				"/>
				<path style="fill:#E35163;" d="M1002.066,1989.336c-1.465,3.012-24.188,2.859-99.777-34.012
					c-75.586-36.863-87.898-56.254-86.418-59.293c1.48-3.035,14.988,7.621,90.574,44.484
					C982.035,1977.391,1003.563,1986.285,1002.066,1989.336z"/>
				<polygon style="fill:#E35163;" points="945.418,1977.859 858.813,1935.617 872.383,1907.777 959.008,1950.027 				"/>
				
					<rect x="897.412" y="1901.028" transform="matrix(0.4384 -0.8988 0.8988 0.4384 -1243.2189 1908.8134)" style="fill:#C94757;" width="16.756" height="96.362"/>
				<path style="fill:#B22E3C;" d="M940.609,1941.055l-49.844-24.32c-5.547-2.691-12.23-0.387-14.945,5.152l69.953,34.117
					C948.469,1950.461,946.176,1943.77,940.609,1941.055z"/>
				
					<rect x="908.57" y="1893.866" transform="matrix(0.4384 -0.8988 0.8988 0.4384 -1206.0299 1904.8801)" style="fill:#B22E3C;" width="25.372" height="47.26"/>
				<polygon style="fill:#B22E3C;" points="1459.242,861.836 1421.805,843.582 1427.383,832.188 1464.789,850.426 				"/>
			</g>
			<polygon style="fill:#FAC52F;" points="1472.063,1084.512 1377.266,1024.801 1414.996,949.352 1521.277,986.109 			"/>
			<path style="fill:#FAC52F;" d="M1414.996,949.352c0,0,6.102-36.496-32.824-55.027c-38.91-18.539-81.461,68.691-76.82,87.375
				c4.645,18.668,22.734,46.184,71.914,43.102C1426.434,1021.711,1414.996,949.352,1414.996,949.352z"/>
		</g>
		<path style="fill:#FFFFFF;" d="M1744.508,918.004c-5.313-210.063-167.855-274.551-167.855-274.551l-32.895,152.242
			c73.164,23.926,87.758,122.309,87.758,122.309S1737.863,918.004,1744.508,918.004z"/>
		<path style="fill:#2D4A6A;" d="M1328.375,640.133c6.414-0.023-73.953,45.438-73.594,122.316l-12.805,142.688
			c-13.531,0.074-11.594,11.477-12.289-136.098C1229.328,692.152,1321.941,640.168,1328.375,640.133z"/>
		<path style="fill:#2D4A6A;" d="M1530.453,640.133c6.438-0.023-73.945,45.438-73.578,122.316l-12.816,98.754
			c-13.523,0.059-12.273-29.613-12.273-92.164C1431.785,692.152,1524.035,640.168,1530.453,640.133z"/>
		<path style="fill:#D68552;" d="M1485.859,643.453c-29.883,24.43-119.332,91.535-136.453,70.598
			c-17.133-20.969-9.457-46.168,20.422-70.598H1485.859z"/>
		<g>
			<path style="fill:#D68552;" d="M1315.797,449.359c0,21.414-14.461,38.785-32.32,38.785c-17.855,0-32.324-17.371-32.324-38.785
				c0-21.422,14.469-38.781,32.324-38.781C1301.336,410.578,1315.797,427.938,1315.797,449.359z"/>
			<path style="fill:#D68552;" d="M1601.293,449.359c0,21.414-14.477,38.785-32.324,38.785c-17.859,0-32.32-17.371-32.32-38.785
				c0-21.422,14.461-38.781,32.32-38.781C1586.816,410.578,1601.293,427.938,1601.293,449.359z"/>
			<g>
				<path style="fill:#D68552;" d="M1453.832,660.203l-68.898-4.512h-0.086c0.176-4.844,0.102-45.809-0.039-81.879l69.137-0.293
					C1454.258,654.75,1453.949,658.574,1453.832,660.203z"/>
			</g>
			<g>
				<path style="fill:#D8DADE;" d="M1443.379,636.156c0,0-61.828,15.289-58.57-62.344l69.137-0.293
					C1453.945,573.519,1457.332,636.156,1443.379,636.156z"/>
			</g>
			<path style="fill:#D68552;" d="M1583.691,370.637c0,104.691-71.871,246.23-160.539,246.23
				c-88.656,0-160.535-141.539-160.535-246.23c0-104.695,71.879-132.894,160.535-132.894
				C1511.82,237.742,1583.691,265.941,1583.691,370.637z"/>
			<path style="fill:#1B0900;" d="M1537.098,346.418c13.133,47.098,37.676,69.355,17.637,151.617
				c0.289,3.152,26.844-61.207,33.922-151.617H1537.098z"/>
			<path style="fill:#1B0900;" d="M1291.613,498.16c-0.555,5.984-69.605-172.703-6.891-276.262
				c10.195,32.348,30.355,32.348,30.355,32.348s34.707-121.84,182.129-96.578c-25.43,21.27,0,39.883,0,39.883
				s39.18-47.941,158.465,23.848c0,0,12.875,89.492-70.891,134.527c-83.758,45.047-146.242-10.797-180.156-32.074
				c0,0-78.172-4.609-109.707,68.695C1284.402,416.98,1291.168,454.973,1291.613,498.16z"/>
		</g>
		<g>
			<path style="fill:#DBDBDB;" d="M1379.344,545.359c0,18.906,19.617,34.23,43.809,34.23c24.207,0,43.828-15.324,43.828-34.23
				H1379.344z"/>
			<polygon style="fill:#D8DADE;" points="1444.316,433.891 1466.258,526.098 1416.375,529.316 1454.746,524.539 			"/>
			<path style="fill:#1B0900;" d="M1441.324,399.883c0.551-2.68,15.695-7.336,15.695-7.336l68.082,23.227
				C1525.102,415.773,1439.676,407.824,1441.324,399.883z"/>
			<path style="fill:#1B0900;" d="M1400.477,399.883c-0.559-2.68-15.711-7.336-15.711-7.336l-68.066,23.227
				C1316.699,415.773,1402.125,407.824,1400.477,399.883z"/>
			<path style="fill:#1B0900;" d="M1483.191,451.801c0,13.523-3.781,24.48-8.461,24.48c-4.672,0-8.473-10.957-8.473-24.48
				c0-13.535,3.801-24.496,8.473-24.496C1479.41,427.305,1483.191,438.266,1483.191,451.801z"/>
			<path style="fill:#1B0900;" d="M1380.32,451.801c0,13.523-3.801,24.48-8.469,24.48c-4.672,0-8.469-10.957-8.469-24.48
				c0-13.535,3.797-24.496,8.469-24.496C1376.52,427.305,1380.32,438.266,1380.32,451.801z"/>
		</g>
		<g>
			<path style="fill:#FAC52F;" d="M1200.352,1434.684c0,0,18.055-35.891-23.91-40.117c-41.98-4.227-2.066,30.313-2.066,30.313l0,0
				c0,0,3.926,25.926,16.016,27.52C1195.426,1453.082,1200.352,1434.684,1200.352,1434.684z"/>
			<polygon style="fill:#FAC52F;" points="1095.434,1295.715 1092.566,1407.734 1176.262,1418.164 1204.609,1309.328 			"/>
			<path style="fill:#FAC52F;" d="M1176.262,1418.164c0,0,0.676,29.809-13.828,72.07c-5.211,23.84-56.141,33.391-69.102,19.168
				c-12.965-14.207-30.598-62.469-0.766-101.668C1122.402,1368.508,1176.262,1418.164,1176.262,1418.164z"/>
		</g>
	</g>
</g>
</svg>
